# xmcd
#
# Track frame offsets:
#	150
#	40937
#	59039
#	102552
#	122379
#	140317
#	155159
#	201999
#	221469
#	232669
#	242227
#	247489
#	257382
#	286487
#	307262
#
# Disc length: 4340 seconds
#
# Revision: 1
# Processed by: cddbd v1.5.1PL0 Copyright (c) Steve Scherf et al.
# Submitted via: CDex 1.50Beta5
#
DISCID=e810f20f
DTITLE=不明 - やすらぎ
DYEAR=1900
DGENRE=
TTITLE0=あ
TTITLE1=い
TTITLE2=う
TTITLE3=え
TTITLE4=お
TTITLE5=か
TTITLE6=き
TTITLE7=く
TTITLE8=け
TTITLE9=こ
TTITLE10=さ
TTITLE11=し
TTITLE12=す
TTITLE13=せ
TTITLE14=そ
EXTD=
EXTT0=
EXTT1=
EXTT2=
EXTT3=
EXTT4=
EXTT5=
EXTT6=
EXTT7=
EXTT8=
EXTT9=
EXTT10=
EXTT11=
EXTT12=
EXTT13=
EXTT14=
PLAYORDER=
